<?xml version="1.0" encoding="utf-8"?>
<!-- Generator: Adobe Illustrator 21.0.0, SVG Export Plug-In . SVG Version: 6.00 Build 0)  -->
<svg version="1.1" id="图层_1" xmlns="http://www.w3.org/2000/svg" xmlns:xlink="http://www.w3.org/1999/xlink" x="0px" y="0px"
  width="54.16" height="207"	 viewBox="0 0 54.2 207" style="enable-background:new 0 0 54.2 207;" xml:space="preserve">
<style type="text/css">
	.st0{fill:#EFEFEF;fill-opacity:0;}
	.st1{fill:#EFEFEF;}
	.st2{fill:#E9E9E9;}
</style>
<title>products_sprites0727</title>
<rect x="17.2" class="st0" width="20" height="23"/>
<g>
	<g>
		<path class="st1" d="M0.7,50v1.5l9.5,8.8l9.5-8.8V50H0.7z M10.2,58.2l-7-6.5h14L10.2,58.2z"/>
		<path class="st1" d="M18,61.7c0,1.6-0.7,1.8-2.3,1.8H4.6c-1.6,0-2.3-0.2-2.3-1.8v-7.2L0.7,53v8.7C0.7,65,3.4,65,4.6,65h11.2
			c1.2,0,3.9,0,3.9-3.4V53L18,54.5V61.7L18,61.7z"/>
	</g>
	<rect x="0.2" y="46" class="st0" width="20" height="23"/>
</g>
<g>
	<g>
		<polygon class="st2" points="17.9,109.4 7.6,109.4 4.1,96.2 0.2,96.2 0.2,94.2 5.6,94.2 9.1,107.4 16.5,107.4 19.3,100.1 
			9.5,100.1 9.5,98.1 22.2,98.1 		"/>
		<circle class="st2" cx="8.7" cy="111.5" r="1.3"/>
		<circle class="st2" cx="16.6" cy="111.5" r="1.3"/>
	</g>
	<rect x="1.2" y="92" class="st0" width="20" height="23"/>
</g>
<g>
	<g>
		<polygon class="st1" points="11.1,81.8 9.2,81.8 9.2,83.2 3.3,83.2 3.3,85.2 9.2,85.2 9.2,89.7 11.1,89.7 11.1,85.2 17.1,85.2 
			17.1,83.2 11.1,83.2 		"/>
		<polygon class="st1" points="19.7,71.3 16.6,71.3 10.2,76.9 3.7,71.3 0.7,71.3 8.5,78.1 3.3,78.1 3.3,80.1 17.1,80.1 17.1,78.1 
			11.8,78.1 		"/>
	</g>
	<rect x="0.2" y="69" class="st0" width="20" height="23"/>
</g>
<g>
	<path class="st1" d="M19.2,189.1H17V186l-15.8,2.6v13.2l0.9,1.3h5.7v1.8l1.8-1.8l9.7,0.1L19.2,189.1L19.2,189.1z M17,199.2V190h1.3
		v12.3h-7.9l1.8-2.2L17,199.2z M7.8,202.3H2.5L2,201.4l5.7-0.9v1.8H7.8z"/>
	<rect x="0.2" y="184" class="st0" width="20" height="23"/>
</g>
<g>
	<path class="st1" d="M7.4,151.8c0-0.1-0.1-0.2-0.2-0.2H7H6.9l-0.1,0.1c0,0-0.1,0.1-0.1,0.2s-0.1,0.4-0.1,0.5c0,0.3,0,0.5,0,0.8
		c0,0.1,0.1,0.3,0.1,0.4c0.1,0.1,0.2,0.2,0.2,0.2s0.2-0.1,0.3-0.2c0-0.1,0.1-0.1,0.1-0.2c0-0.1,0-0.2,0-0.2c0.1-0.1,0.1-0.3,0.1-0.5
		s0-0.4,0-0.5C7.4,152,7.4,151.9,7.4,151.8 M13.3,151.8c-0.1-0.1-0.2-0.1-0.3-0.1s-0.1,0-0.2,0c-0.1,0-0.2,0.1-0.3,0.1h-0.3
		l-0.2,0.1c-0.1,0-0.2,0.1-0.3,0.2c0,0.1-0.1,0.2-0.1,0.3s0.1,0.2,0.2,0.3c0.2,0,0.3,0,0.5,0h0.1h0.1h0.1c0.2,0,0.4,0,0.6-0.1
		c0.1-0.1,0.2-0.2,0.1-0.4C13.5,151.9,13.4,151.8,13.3,151.8 M6.1,151.4c-0.1-0.1-0.1-0.1-0.2-0.1H5.8c-0.1,0.1-0.2,0.2-0.3,0.4
		c0,0.1-0.1,0.2-0.2,0.3c-0.1,0.2-0.2,0.4-0.2,0.6c0,0.1-0.1,0.3-0.1,0.4c0,0.1,0,0.3,0,0.4c0,0.1,0.1,0.2,0.2,0.3
		c0.1,0,0.2,0,0.3-0.1c0.1-0.1,0.2-0.2,0.2-0.3s0.1-0.3,0.1-0.4c0.1-0.1,0.2-0.2,0.2-0.3s0-0.3,0-0.4c0-0.1,0-0.3,0-0.4
		C6.1,151.7,6.1,151.6,6.1,151.4 M8.8,152.4c0-0.1,0-0.2,0-0.2c0-0.1,0-0.2,0-0.3v-0.1v-0.1c0-0.1-0.1-0.2-0.1-0.4
		c-0.1-0.1-0.2-0.1-0.3-0.1H8.3c-0.1,0-0.2,0-0.2,0.1c0,0,0,0.1-0.1,0.1c0,0,0,0.1-0.1,0.2c0,0.1,0,0.2,0,0.3s0.1,0.2,0.1,0.4
		c0,0.1,0.1,0.3,0.3,0.4c0.1,0.1,0.2,0.2,0.3,0.1S8.7,152.5,8.8,152.4 M7,151c0.1,0,0.2,0,0.3-0.1c0.2,0,0.4-0.1,0.6-0.3
		c0.1-0.1,0.2-0.2,0.3-0.3c0.1,0,0.1-0.1,0.2-0.1c0.1,0,0.1-0.1,0.2-0.1c0.1-0.1,0.1-0.3,0.1-0.4c0-0.1,0-0.2,0-0.3
		s-0.1-0.2-0.1-0.3s0-0.3-0.1-0.4c0-0.1-0.1-0.1-0.1-0.2c-0.1-0.1-0.1-0.1-0.1-0.2c0-0.1-0.1-0.1-0.1-0.2c0,0-0.1,0-0.1-0.1l0,0
		c0,0,0-0.2,0-0.3s0,0,0-0.1v-0.1c0-0.1,0.1-0.1,0.1-0.2c0.1-0.1,0.3-0.2,0.4-0.2c0.1,0,0.1-0.1,0.2-0.2c0-0.1,0-0.2,0-0.3
		s0-0.2,0-0.2s0-0.1-0.1-0.2c-0.1-0.2-0.3-0.3-0.5-0.3c-0.1,0-0.1,0-0.2,0c-0.1,0-0.1,0-0.2,0L7.7,146c-0.1,0-0.2,0-0.2,0.1
		s0,0.2,0,0.2s0.2,0.1,0.2,0.2s0,0.1,0,0.2c0,0-0.1,0.1-0.1,0.2c0,0.1-0.1,0.2-0.2,0.2l-0.1,0.1c0,0.1-0.1,0.1-0.2,0.1
		s-0.1,0.1-0.2,0.1c-0.1,0.1-0.2,0.1-0.2,0c0,0-0.1,0-0.2,0s-0.1,0-0.2-0.1c0,0,0,0-0.1-0.1S6,147.1,6,147c0-0.2,0-0.3,0.1-0.4
		c0-0.1,0-0.2,0.1-0.3c0,0,0.1,0,0.1-0.1s0.1-0.1,0.1-0.2c0.1,0,0.1-0.1,0.1-0.2c0-0.1,0.1-0.1,0.1-0.2c0-0.1,0.1-0.1,0.1-0.1
		s0.1,0,0.1-0.1c0.1,0,0.1,0,0.2,0s0.1,0,0.2-0.1c0.1,0,0.1,0,0.2,0s0.2-0.1,0.3-0.1c0,0,0-0.2,0-0.4s-0.1-0.3-0.3-0.4
		c-0.1-0.1-0.3-0.1-0.4-0.1s-0.1,0-0.2,0H7H6.9c-0.1,0-0.1,0-0.2,0s-0.2,0.1-0.3,0.3c0,0.1-0.1,0.1-0.1,0.2c-0.1,0-0.1,0.1-0.1,0.1
		s0,0.1-0.1,0.1S6,145.1,6,145.2c0,0.1,0,0.1-0.1,0.1c-0.1,0.1-0.2,0.3-0.3,0.5c-0.1,0.1-0.1,0.3-0.2,0.4c0,0.1,0,0.1-0.1,0.1
		c0,0-0.1,0.1,0,0.4c0,0.1,0,0.1,0.1,0.2l0.1,0.1c0,0.1,0,0.1,0.1,0.1l0.1,0.1c0,0.1,0.1,0.2,0.2,0.2s0.1,0.1,0.1,0.1
		s0.1,0.1,0.1,0.2c0.1,0.1,0.1,0.3,0,0.4c-0.1,0.1-0.1,0.2-0.2,0.4c0,0.1,0,0.2-0.1,0.2s-0.2,0.2-0.3,0.4c-0.1,0.1-0.1,0.2-0.1,0.4
		c0,0.1,0,0.2,0,0.3c0,0.2,0.1,0.4,0.2,0.6c0.2,0.1,0.4,0.2,0.6,0.2c0.1,0,0.3,0,0.4,0.1C6.9,151,7,151,7,151 M6.4,150
		c-0.1-0.1-0.2-0.2-0.2-0.4c0-0.1,0.1-0.2,0.1-0.2c0.1-0.1,0.1-0.2,0.1-0.3s0.1-0.2,0.2-0.2c0.1-0.1,0.2-0.2,0.3-0.3
		c0-0.1,0.1-0.2,0.2-0.2s0.2,0,0.3-0.1l0,0l0.3,0.1c0,0,0,0,0,0.1c0,0,0,0.1,0.1,0.1c0.1,0.1,0.1,0.1,0.1,0.2c0,0,0,0.1,0.1,0.1
		c0.1,0.1,0.1,0.2,0.1,0.3s0,0.2,0,0.4c0,0.1,0,0.2,0,0.3l0,0c-0.1,0.1-0.2,0.2-0.3,0.3c-0.1,0-0.2,0.1-0.3,0.1c-0.1,0-0.1,0-0.2,0
		H7H6.9c-0.1,0-0.1-0.1-0.2-0.1C6.5,150.1,6.5,150,6.4,150 M11.6,147.1c0,0,0-0.1-0.1-0.1c0-0.1-0.1-0.2-0.1-0.3
		c-0.1-0.1-0.2-0.1-0.3-0.1l0,0c-0.1,0-0.2,0-0.2,0.1l-0.1,0.1c0,0,0,0.1,0,0.2c0,0.1,0,0.2,0,0.2c0,0.1,0.1,0.2,0.1,0.4
		c0,0.1,0.1,0.3,0.3,0.3c0.1,0.1,0.2,0.1,0.3,0.1s0.1-0.1,0.2-0.2c0-0.1,0-0.2,0-0.2c0-0.1,0-0.1,0-0.2
		C11.7,147.2,11.7,147.1,11.6,147.1 M14.9,152.2c0-0.3-0.1-0.7-0.2-1c-0.1-0.2-0.1-0.5,0-0.7c0-0.2,0-0.5,0-0.7c0-0.1,0-0.2,0-0.3
		s0-0.2,0-0.3s0-0.2,0-0.3c0.1-0.1,0.1-0.3,0.1-0.4c0-0.3,0-0.5,0-0.8c0-0.1,0-0.2,0-0.3s0-0.2,0-0.2c0-0.1,0-0.1,0-0.2
		c0-0.1,0-0.1,0.1-0.2c0.1-0.1,0.1-0.1,0.1-0.2c0-0.1,0-0.3,0-0.4c-0.1-0.2-0.2-0.4-0.4-0.5c-0.1,0-0.2-0.1-0.2-0.2
		c0-0.1-0.1-0.1-0.2-0.2c-0.1,0-0.2,0-0.3,0s-0.2,0-0.3-0.1c-0.1,0-0.1-0.1-0.2-0.1c-0.1,0-0.2,0-0.3,0c-0.2,0-0.4,0-0.6,0
		c-0.1,0-0.3,0-0.4,0c-0.1,0-0.1,0-0.2,0c-0.1,0-0.2,0-0.3,0.1c-0.1,0-0.1,0-0.2,0c-0.1,0-0.2,0-0.3,0.1c-0.1,0-0.2,0-0.3,0
		c-0.2,0-0.3,0-0.5,0h-0.2H10l0,0c-0.1-0.1-0.3-0.1-0.4,0c-0.2,0.1-0.3,0.3-0.4,0.5c-0.1,0.3-0.2,0.5-0.1,0.8c0,0.3,0.1,0.5,0.2,0.7
		c0.1,0.2,0.2,0.4,0.2,0.6c0,0.4,0,0.7,0,0.8c0,0.2,0,0.3,0,0.5c0,0.1,0,0.2,0,0.3c0,0,0,0.1,0,0.3c0.1,0.2,0.1,0.3,0,0.5
		c-0.1,0.3-0.2,0.6-0.2,0.8c0,0.1,0,0.2-0.1,0.3c0,0.2-0.1,0.3-0.1,0.5c0,0-0.1,0.1-0.1,0.2c0,0.1-0.1,0.3-0.2,0.4
		c-0.1,0.1-0.1,0.2-0.2,0.3c0,0.1-0.1,0.2-0.1,0.3s0,0.2,0,0.3s0.1,0.2,0.2,0.3c0.1,0,0.2,0.1,0.3,0.1s0.3-0.1,0.4-0.2
		c0.1-0.1,0.1-0.2,0.2-0.3c0-0.2,0.1-0.4,0.2-0.6c0-0.1,0-0.1,0-0.2c0-0.1,0-0.2,0-0.3s0-0.1,0.1-0.2c0-0.1,0-0.1,0-0.2
		c0-0.1,0-0.1,0-0.2c0-0.1,0-0.2,0.1-0.3c0-0.1,0-0.2,0.1-0.4l0,0l0.2,0.1h0.2l0.1,0.1c0,0,0,0.1,0.1,0.1l0,0c0,0.1,0,0.1,0,0.2
		c0,0.2,0,0.5,0,0.7s0.2,0.3,0.3,0.4l0.2,0.1h0.1c0.1-0.1,0.2-0.1,0.2-0.2c0-0.1,0-0.2-0.1-0.3c0,0,0-0.1-0.1-0.1c0-0.1,0-0.2,0-0.2
		v-0.2c0-0.1,0-0.1,0-0.2c0.1-0.1,0.1-0.3,0.1-0.4l0,0c0.2-0.1,0.4-0.2,0.6-0.3l0,0c0.1,0,0.2,0,0.4,0s0.3,0,0.5,0
		c0.2,0.1,0.4,0.1,0.6,0c0.1,0,0.2-0.2,0.2-0.3s-0.1-0.3-0.2-0.4c-0.1-0.1-0.2-0.1-0.3-0.1s-0.2,0-0.4,0c-0.1,0-0.2,0-0.3,0l0,0
		c-0.1,0-0.1-0.1-0.2-0.2l0,0c0-0.1,0-0.1,0-0.2c0-0.1,0-0.2,0-0.3l0,0l0.1-0.1c0,0,0.1,0,0.2-0.1c0.1,0,0.2,0,0.3,0
		c0.2-0.1,0.4-0.1,0.7,0h0.1c0.1,0.1,0.1,0.1,0.2,0.2c0.1,0,0.1,0.1,0.2,0.2c0,0.1,0,0.2,0,0.3c0,0.2,0,0.3,0,0.5c0,0.1,0,0.3,0,0.4
		c0,0.1,0,0.2,0,0.4c0,0.1,0,0.2,0,0.2c0,0.3,0,0.7,0,1c0,0.2,0,0.3,0.1,0.5c0,0.1,0,0.2,0,0.3s0,0.1,0,0.2c0,0.1,0,0.2,0,0.2
		c0,0.1,0.1,0.3,0.1,0.4c0.1,0.1,0.2,0.2,0.3,0.2s0.3-0.1,0.4-0.1c0,0,0.1-0.1,0.1-0.2c0-0.1,0-0.1,0.1-0.2c0-0.1,0-0.3,0-0.4
		c0-0.2-0.1-0.4-0.1-0.6 M11.5,149.7c-0.1,0.1-0.1,0.1-0.2,0.2l0,0c-0.1,0-0.1,0-0.2,0c-0.1,0-0.2,0-0.3,0s-0.2,0-0.3,0.1
		c-0.1,0-0.2,0.1-0.3,0.2c0-0.1,0-0.2,0-0.3s0.1-0.2,0.1-0.4c0-0.1,0-0.1,0.1-0.1c0-0.1,0.1-0.1,0.2-0.2h0.1h0.2
		c0.1,0,0.2-0.1,0.3-0.1l0,0c0.1,0,0.2,0.1,0.3,0.1c0,0,0,0,0.1,0v0.3C11.4,149.5,11.4,149.6,11.5,149.7
		C11.4,149.7,11.4,149.7,11.5,149.7 M13.8,147.5c0,0.1,0,0.3,0,0.4v0.1l-0.1,0.1c0,0,0,0-0.1,0l0,0c-0.1,0-0.2,0-0.4,0
		c-0.1,0-0.2,0-0.3,0l0,0l-0.1-0.1v-0.1c0-0.1,0-0.3,0.1-0.4c0.1-0.1,0.1-0.2,0.2-0.3c0-0.1,0.1-0.2,0.1-0.3s0-0.3-0.1-0.4
		c0-0.1-0.1-0.1-0.2-0.2c-0.1,0-0.3,0-0.3,0.1c-0.1,0.1-0.2,0.2-0.2,0.4c0,0.1-0.1,0.2-0.1,0.3v0.2c0,0.1,0,0.2,0,0.3s0,0.2-0.1,0.2
		v0.1l-0.1,0.1l-0.1,0.1l0,0c-0.1,0-0.3,0-0.4,0c-0.1,0.1-0.2,0.1-0.3,0.1s-0.2,0-0.3,0s-0.2,0-0.3,0s-0.2,0-0.2,0l0,0l-0.3-0.3l0,0
		l0,0c-0.1-0.2-0.1-0.4-0.1-0.6c0-0.1,0-0.3-0.1-0.5c0-0.2,0.1-0.4,0.2-0.5c0,0,0,0,0-0.1c0.2-0.1,0.3-0.2,0.5-0.3h0.1
		c0.1,0,0.1,0,0.2,0l0,0c0.1,0,0.2,0,0.3-0.1c0.3-0.1,0.6-0.2,0.9-0.1c0.2,0,0.4,0,0.6,0c0.3-0.1,0.6,0,1,0.4
		c0.2,0.2,0.2,0.4,0.3,0.6c0,0.2,0,0.4,0,0.6 M24.5,150.8c0-0.1,0-0.1,0-0.2c0-0.1-0.1-0.1-0.1-0.2c0-0.1,0-0.2-0.1-0.3l-0.2-0.3
		c0-0.1,0-0.2-0.1-0.2c-0.1-0.1-0.3-0.2-0.4-0.4c-0.2-0.2-0.5-0.3-0.8-0.5c-0.1-0.1-0.1-0.1-0.2-0.1s-0.2,0-0.3,0
		c-0.1,0-0.1,0-0.2,0s-0.2,0-0.4,0h-0.4l0,0c-0.1,0-0.3,0-0.4,0.1c-0.1,0-0.2,0.2-0.2,0.3s0,0.2,0.1,0.3l0,0
		c-0.1,0.1-0.3,0.2-0.4,0.3c-0.1,0-0.1,0.1-0.2,0.2l-0.4,0.3l-0.5,0.3c-0.1,0.1-0.2,0.1-0.3,0.2c-0.1,0.1-0.2,0.1-0.2,0.2
		c-0.1,0-0.2,0.1-0.3,0.2c-0.2,0.1-0.4,0.2-0.7,0.3c-0.1,0-0.2,0-0.3,0.1c-0.2,0.1-0.4,0.1-0.6,0.1s-0.3,0.1-0.4,0.2
		c-0.1,0.1-0.2,0.2-0.1,0.3c0,0.1,0.1,0.3,0.2,0.3c0.1,0.1,0.3,0.1,0.4,0.1c0.2,0,0.3-0.1,0.4-0.1c0.1-0.1,0.2-0.1,0.3-0.1
		c0.2,0,0.4-0.1,0.5-0.2c0.1-0.1,0.3-0.1,0.4-0.2c0.1-0.1,0.2-0.2,0.3-0.2c0.1,0,0.2-0.1,0.3-0.2c0.1-0.1,0.1-0.1,0.2-0.2
		c0.1-0.1,0.2-0.2,0.3-0.3c0.1-0.1,0.1-0.1,0.2-0.1c0.1-0.1,0.3-0.2,0.4-0.3s0.1-0.2,0.2-0.2l0.4-0.3c0-0.1,0.1-0.1,0.2-0.2
		c0.1-0.1,0.2-0.2,0.2-0.3l0,0c0.1,0,0.2,0,0.3,0c0.1,0,0.2,0,0.4,0h0.1v0.1c0.1,0.1,0.1,0.2,0.1,0.4c0,0.1,0.1,0.2,0.1,0.2h0.2H23
		h0.2h0.1c0.2,0.2,0.3,0.4,0.4,0.6c0.1,0.2,0.1,0.4,0,0.6c-0.1,0.2-0.2,0.4-0.3,0.6l-0.2,0.2c-0.1,0.2-0.3,0.3-0.5,0.4
		c-0.1,0-0.1,0-0.1,0.1c-0.2,0.1-0.4,0.2-0.6,0.2c-0.2,0.1-0.4,0.1-0.6,0h-0.1l-0.2-0.2c-0.1-0.1-0.3-0.1-0.4,0s-0.1,0.2-0.1,0.2
		c0,0.1,0,0.2,0.1,0.3c0,0,0.1,0.1,0.1,0.2c0,0.1,0,0.1,0.1,0.2c0.1,0.1,0.1,0.1,0.1,0.2c0.1,0.1,0.2,0.1,0.3,0.1
		c0.1,0,0.2,0,0.3,0.1c0.1,0,0.3,0,0.4-0.1s0.3-0.1,0.5-0.1c0.3-0.1,0.6-0.3,0.9-0.5c0.2-0.1,0.3-0.2,0.5-0.4c0-0.1,0.1-0.1,0.1-0.2
		c0.1,0,0.2-0.1,0.4-0.3c0.1-0.1,0.2-0.3,0.2-0.5c0-0.1,0-0.1,0-0.2c0.1-0.2,0.1-0.4,0.1-0.5s0-0.2,0-0.3 M20.7,152.4
		c0-0.1,0-0.1,0.1-0.2c0.2-0.1,0.3-0.2,0.4-0.3s0.2-0.2,0.3-0.3l0.4-0.3c0.1-0.1,0.1-0.2,0.2-0.2c0.1-0.1,0.2-0.2,0.3-0.3
		c0-0.1-0.1-0.3-0.2-0.3l0,0h-0.1c-0.1,0-0.2,0-0.3,0.1c-0.2,0.1-0.3,0.3-0.5,0.4c-0.1,0-0.1,0.1-0.2,0.2l-0.4,0.3l-0.6,0.4
		c-0.1,0.1-0.2,0.1-0.3,0.2c-0.1,0.1-0.2,0.1-0.3,0.2c-0.1,0-0.2,0.1-0.3,0.2c-0.2,0.2-0.5,0.3-0.7,0.4c-0.1,0-0.3,0.1-0.4,0.1
		c-0.2,0.1-0.4,0.2-0.6,0.2s-0.3,0.1-0.5,0.2c-0.1,0.1-0.2,0.2-0.2,0.4c0,0.1,0.1,0.3,0.3,0.4c0.1,0.1,0.3,0.1,0.4,0.1
		c0.2,0,0.3-0.1,0.5-0.2c0.1-0.1,0.2-0.1,0.3-0.1c0.2,0,0.4-0.1,0.6-0.2c0.2-0.1,0.3-0.1,0.5-0.2c0.1-0.1,0.2-0.2,0.3-0.2
		c0.1,0,0.2-0.1,0.4-0.2c0.1-0.1,0.2-0.2,0.3-0.2h0.1h0.2c0.1,0,0.1,0,0.2,0C20.7,152.5,20.7,152.5,20.7,152.4 M16.4,150.4
		c0,0.1,0.1,0.1,0.2,0.1c0.2,0.1,0.3,0.1,0.5,0c0.1,0,0.1,0,0.2,0s0.2,0,0.3-0.1c0.1-0.1,0.3-0.1,0.4-0.1s0.3,0,0.4-0.1l0.3-0.2
		c0.2-0.1,0.3-0.1,0.4-0.3c0.1-0.1,0.1-0.1,0.2-0.1s0.2-0.1,0.2-0.2c0.1-0.1,0.1-0.1,0.2-0.2c0.1-0.1,0.2-0.2,0.3-0.3
		c0.1-0.1,0.1-0.2,0.1-0.4c0.1,0,0.2,0,0.3,0c0.1,0.1,0.3,0.1,0.4,0c0.1,0,0.3,0,0.4,0s0.3,0,0.4,0c0.2,0,0.3,0,0.5,0s0.4,0,0.6-0.1
		s0.4-0.2,0.5-0.4s0.2-0.4,0.2-0.6v-0.6c0-0.1,0-0.3-0.1-0.4c0-0.1-0.1-0.2-0.1-0.3c0-0.2,0-0.4-0.1-0.5s-0.1-0.1-0.1-0.2
		c0-0.1-0.1-0.2-0.3-0.3c-0.1-0.1-0.3-0.2-0.4-0.2s-0.2,0-0.3-0.1c-0.3-0.1-0.6-0.2-0.9-0.1c-0.2,0-0.4,0-0.7,0c-0.2,0-0.3,0-0.5,0
		h-0.2c-0.2,0-0.4,0-0.6,0.1c-0.1,0-0.2,0-0.4,0c-0.2,0-0.3,0.1-0.5,0.2c-0.1,0.1-0.2,0.2-0.1,0.3c0,0.1,0.1,0.3,0.3,0.3
		c0.2,0,0.5,0,0.7-0.1c0.3-0.1,0.6-0.2,0.9-0.1c0.3,0,0.6,0,1,0c0.5,0,0.9,0.1,0.9,0.2c0.1,0,0.1,0.1,0.2,0.1s0.1,0.1,0.1,0.2
		c0,0.1,0.1,0.2,0.1,0.2c0,0.1,0,0.2,0,0.2c0,0.1,0,0.3,0.1,0.4c0,0.3,0,0.6-0.2,0.9c-0.1,0.1-0.3,0.2-0.5,0.2s-0.4,0-0.6,0.1
		s-0.4,0.1-0.6,0c-0.4-0.1-0.8-0.1-1.1,0c-0.3,0.1-0.6,0.1-0.8,0c-0.2,0-0.3-0.1-0.4-0.3c-0.1-0.1-0.1-0.3-0.2-0.4
		c0-0.2,0-0.5,0-0.8c0-0.2,0-0.4,0-0.6c0-0.1-0.1-0.2-0.1-0.2c-0.1,0-0.1-0.1-0.2-0.1s-0.1,0-0.2,0.1s-0.1,0.1-0.2,0.2
		c-0.1,0.2-0.1,0.3-0.1,0.5c0,0.1,0,0.2,0,0.3s0,0.2,0,0.4c0,0.3,0,0.5,0,0.8c0,0.2,0,0.4,0.1,0.4c0.1,0.1,0.2,0.2,0.2,0.3
		s0.2,0.2,0.4,0.3c0.2,0.1,0.3,0.1,0.5,0s0.3-0.1,0.5,0c0,0.1-0.1,0.1-0.1,0.2c-0.1,0.1-0.2,0.2-0.4,0.3c-0.1,0-0.2,0.1-0.3,0.1
		c-0.1,0.1-0.2,0.1-0.4,0.2c-0.1,0-0.3,0-0.4,0.1s-0.2,0.1-0.4,0.1c-0.1,0-0.2,0-0.3,0c-0.1,0-0.3,0-0.4,0s-0.2,0.1-0.3,0.1
		c-0.1,0.1-0.1,0.2-0.1,0.3v0.1c0,0,0,0,0,0.1 M19.4,147c0.2-0.1,0.5-0.1,0.7,0s0.4,0.1,0.5,0c0.2-0.1,0.4-0.1,0.6,0
		c0.1,0,0.2,0,0.4,0c0.1-0.1,0.2-0.2,0.2-0.3s-0.1-0.3-0.2-0.4c-0.1-0.1-0.3-0.1-0.5,0c-0.2,0-0.3,0-0.5,0c-0.1,0-0.2,0-0.4,0
		c-0.1,0-0.3,0-0.4,0c-0.2,0.1-0.4,0.1-0.6,0c-0.1-0.1-0.3,0-0.4,0.1s-0.1,0.2-0.1,0.3s0,0.2,0.1,0.3C19,147.2,19.2,147.2,19.4,147"
		/>
	<path class="st1" d="M13.2,154.6v2.5H1.5v-15.8h11.7v2.7h1.3v-4c0-1.1-0.8-2-1.9-2c0,0,0,0-0.1,0H2.1c-1.1,0-1.9,0.9-1.9,1.9l0,0
		V159c0,1.1,0.9,1.9,1.9,1.9l0,0h10.4c1.1,0,1.9-0.9,1.9-1.9l0,0v-4.4H13.2z M7.3,160.3c-0.6,0-1.1-0.5-1.1-1.1s0.5-1.1,1.1-1.1
		s1.1,0.5,1.1,1.1C8.5,159.8,7.9,160.3,7.3,160.3L7.3,160.3L7.3,160.3z"/>
</g>
<path class="st1" d="M15.5,171c-0.6-0.1-1.2-0.1-1.8-0.1c-2.3,0.1-4.5,0.3-6.7,0.6c-1,0.2-1.3,0.3-2.1,0.4c-0.6,0.1-1.1,0.2-1.7,0.4
	c-0.3,0.1-0.5,0.1-0.8,0.2c0,0-0.2-0.2-0.3-0.6s-0.2-0.4-0.2-0.6v-0.1c0.5,0,1,0,1.5-0.1c0.5,0,1-0.1,1.4-0.1c0.8-0.1,1-0.1,1.7-0.1
	c0-0.9,0-1.7-0.1-2.5c-0.4,0.4-0.8,0.8-1.2,1.1c-0.5,0.4-1,0.7-1.6,0.9H3.4l-0.1-0.1c-0.1-0.1-0.2-0.2-0.3-0.4l-0.3-0.2v-0.1
	c0.1,0,0.2,0,0.2-0.1c0.4-0.1,0.8-0.2,1.1-0.4c0.5-0.2,1.2-0.5,2-1l0.2,0.2c0-0.4-0.1-0.9-0.1-1.3v-0.1c-0.5,0.1-1,0.1-1.5,0.2
	c-0.6,0.2-1.1,0.3-1.7,0.4c-0.1,0-0.1-0.1-0.1-0.3s-0.1-0.4-0.1-0.6c-0.1-0.1-0.1-0.2-0.1-0.3h1c0.4-0.1,0.9-0.1,1.3-0.2
	c1.1-0.1,2.2-0.2,3.4-0.4l3.2-0.5c1.3-0.2,2-0.3,2.1-0.3s0.1,0.1,0.2,0.4c0,0.2,0.1,0.4,0.1,0.6c0,0.1,0,0.1,0,0.1
	c-0.1,0-0.3,0-0.4-0.1l-2,0.1c-0.7,0.1-1.3,0.1-1.8,0.2c0.2,0.1,0.4,0.1,0.7,0.1c0.1,0.1,0.1,0.2,0.1,0.3c0,0.3-0.1,0.9-0.1,2
	c1-0.4,1.9-1,2.7-1.8h0.1c0.1,0.1,0.3,0.2,0.4,0.3c0.1,0.1,0.2,0.2,0.3,0.3c0.1,0,0.2,0.1,0.2,0.1s-0.1,0.3-0.4,0.4
	c-0.2,0.1-0.5,0.2-0.8,0.3c-0.6,0.3-1.3,0.6-1.9,0.8l-0.6,0.2c0,0.3,0,0.6,0,1c0.6-0.1,1.2-0.2,1.7-0.2l3-0.6c0.2,0,0.2,0.2,0.3,0.5
	c0,0.3,0.1,0.6,0.2,0.9C15.6,171,15.6,171,15.5,171L15.5,171z M9.5,166.4c-0.5,0.1-0.9,0.1-1.3,0.2l-1.3,0.2c0.1,0,0.2,0.1,0.3,0.1
	c0.1,0,0.1,0.1,0.1,0.2c0,0.1,0,0.3,0,0.6v3.1l1.3-0.2c0.2,0,0.5-0.1,0.7-0.1C9.5,168.9,9.5,167.5,9.5,166.4L9.5,166.4z M5.7,173.4
	c-0.1,0.3-0.2,0.5-0.4,0.7c-0.7,1.5-1.5,2.9-2.5,4.2c-0.9,1-1.7,1.6-2.5,1.6c-0.1,0-0.1-0.1-0.1-0.1c1-0.8,1.8-1.8,2.5-2.9
	c0.4-0.7,0.8-1.5,1.1-2.2c0.3-0.6,0.6-1.3,0.7-1.9c0-0.1,0-0.1,0.1-0.2h0.2c0,0.2,0.2,0.2,0.4,0.4l0.2,0.1
	C5.5,173.2,5.6,173.3,5.7,173.4L5.7,173.4L5.7,173.4z M27.1,174.1c-0.2,0.7-0.7,1.3-1.3,1.7c-0.6,0.4-1.3,0.6-2,0.5
	c-0.1,0-0.2-0.1-0.2-0.1c0.7-0.3,1.3-0.7,1.8-1.1c0.3-0.3,0.5-0.6,0.7-1s0.3-0.9,0.4-1.4c0,0,0-0.1,0.1-0.1s0.2,0,0.3,0.1l0.1,0.1
	c0.1,0.1,0.2,0.2,0.3,0.2c0.1,0.1,0.2,0.1,0.2,0.2C27.5,173.6,27.3,173.9,27.1,174.1L27.1,174.1z M32.5,177.8
	c-2.3,0-3.4-0.6-3.5-1.7c0-0.3,0-1.3,0.1-2.9c0-0.2,0-0.3,0-0.5c0-0.1,0-0.1,0.1-0.1l0,0c0.1,0,0.1,0,0.2,0.1c0.2,0,0.5,0.1,0.7,0.2
	c0,0,0,0,0.1,0.1c-0.2,1-0.3,2-0.4,3c0,0.8,0.7,1.2,1.9,1.2c0.4,0,0.9,0,1.3-0.1c0.2,0,0.3-0.1,0.4-0.2c0.1-0.2,0.2-0.5,0.2-0.8
	c0-0.5,0.1-1,0.1-1.6c0-0.9,0.1,0,0.1,0.1c0.1,0.5,0.2,1,0.3,1.6c0.1,0.5,0.3,0.9,0.3,1.4C34.6,177.7,33.9,177.8,32.5,177.8
	L32.5,177.8z M33.5,171.7c-0.1,0-0.2,0-0.3-0.1c-0.6,0-1.2,0-1.9,0.1s-2.7,0.1-3,0.2s-0.6,0.1-1,0.1c-0.2,0-0.5,0-0.8,0.1
	s-0.7,0.1-1.3,0.2c-0.9,0.2-1.3,0.3-1.4,0.3s-0.1-0.1-0.1-0.3s-0.1-0.4-0.1-0.4c0-0.1-0.1-0.2-0.1-0.3c0.3,0,0.7-0.1,1-0.1l1.1-0.1
	c1.4-0.1,1.9-0.2,2.6-0.3v-2.4c-0.5,0.1-0.5,0.2-1.1,0.3c-0.3,0.1-0.7,0.2-1,0.2c0,0-0.1-0.1-0.1-0.2c-0.1,0.1-0.1,0.2-0.2,0.4
	c-0.3,0.5-0.7,1-1.2,1.4h-0.2c-0.1,0-0.1,0-0.1-0.1c0.5-0.6,0.9-1.3,1.1-2c0.3-0.7,0.5-1.4,0.5-2.2c0-0.1,0-0.2,0-0.2s0-0.1,0.1-0.1
	c0.1,0.1,0.3,0.2,0.4,0.2l0.5,0.3c0.2,0,0.2,0,0.2,0.1S27,167,27,167c-0.1,0.2-0.2,0.3-0.2,0.5c-0.1,0.2-0.2,0.4-0.3,0.6l0,0
	c0.2,0,0.5-0.1,0.8-0.1c0.5-0.1,0.6-0.1,1-0.2c0-0.4,0-0.9,0-1.3c0-0.6-0.1-1.1-0.2-1.6v-0.1c0.3,0.1,0.5,0.1,0.8,0.2
	c0.1,0,0.2,0.1,0.3,0.1l0.1,0.1c0,0.2,0,0.3-0.1,0.5c0,0.3-0.1,0.6-0.1,0.8s0,0.7,0,1.3c0.4-0.1,1.1-0.1,1.7-0.2s1.2-0.3,1.3-0.3
	c0.1,0,0.1,0.2,0.1,0.4s0,0.3,0.1,0.5v0.1c0,0-0.2,0-0.3,0c-0.4,0-0.8,0-1.2,0.1l-1.7,0.1c0,0.7-0.1,1.5-0.1,2.4
	c0.6,0,1.6-0.1,2.4-0.2c1.2-0.1,1.9-0.2,2-0.2s0.1,0.1,0.1,0.4c0,0.2,0.1,0.3,0.1,0.5c0,0.1,0,0.1,0,0.1L33.5,171.7z M23.4,166.5
	c-0.3,0.4-0.7,0.7-1.1,1.1c-0.5,0.4-0.9,0.8-1.4,1.1l-0.3-0.1c0.2-0.3,0.6-0.8,1-1.5c0.3-0.4,0.4-0.8,0.5-1.2l0.1-0.1
	c0.1,0.1,0.3,0.2,0.5,0.2l0.5,0.1c0.1,0,0.2,0.1,0.3,0.1S23.5,166.4,23.4,166.5L23.4,166.5z M35.1,178.9c-0.4,0.2-0.9,0.4-1.4,0.6
	c-0.3,0.1-0.7,0.2-1.1,0.3c-0.3,0.1-0.5,0.2-0.8,0.2c-0.6-0.1-1.2-0.3-1.8-0.5c-0.9-0.4-1.9-0.6-2.9-0.8c-3.3-0.7-5.2-1.1-5.5-1.1
	c-0.2,0-0.4,0.2-1,1c-0.2,0.3-0.4,0.4-0.5,0.4s-0.2-0.2-0.4-0.5c-0.2-0.2-0.3-0.5-0.5-0.7c0-0.1,0.1-0.2,0.2-0.3
	c0.5-0.1,0.9-0.4,1.3-0.7c0.1-0.1,0.3-0.2,0.4-0.3s0.4-0.4,0.4-0.4c0.2-0.2,0.4-0.5,0.5-0.8c-0.2-0.4-0.5-0.7-0.9-1
	c-0.2-0.2-0.4-0.3-0.6-0.4c-0.3-0.1-0.4-0.3-0.4-0.4c0-0.3,0.2-0.5,0.4-0.6c0.2-0.2,0.3-0.5,0.4-0.7c0.3-0.5,0.5-1,0.7-1.6
	c-0.3,0-0.7,0-1,0.1c-1,0.1-1.1,0.3-1.2,0.2s-0.1-0.1-0.2-0.4s-0.1-0.3-0.2-0.4c0-0.1,0.1-0.1,0.1-0.1l0,0c0.3,0,0.7,0,1,0
	c1.1-0.1,0.5,0,1.7-0.2c0-0.1,0.1-0.2,0.1-0.3H22c0.2,0.1,0.3,0.3,0.5,0.4c0.3,0.3,0.5,0.4,0.5,0.5s0,0.1-0.1,0.1
	c-0.4,0.4-0.8,0.9-1.1,1.5l-0.3,0.5c-0.2,0.2-0.3,0.5-0.3,0.7c0,0.1,0.2,0.3,0.5,0.5s0.6,0.5,0.8,0.6s0.5,0.4,0.5,0.6
	c0,0.3-0.2,0.6-0.4,0.8c-0.2,0.3-0.6,0.9-0.8,1c0.7,0.1,1.6,0.3,3.1,0.6c0.2,0,1.9,0.3,2.6,0.5c0.9,0.2,1.6,0.3,2.6,0.5
	c1.6,0.2,3.2,0.3,4.8,0.3C35.3,178.7,35.2,178.8,35.1,178.9L35.1,178.9z"/>
<g>
	<path class="st1" d="M24.3,30.5h-6c-0.3,0-0.6,0.2-0.6,0.5s0.2,0.6,0.5,0.6c0.1,0,0.1,0,0.2,0h5.9V40c-0.1,0.1-0.3,0.3-0.4,0.4
		l-0.3,0.2l-0.1,0.1l0,0l0,0c0,0.1-0.1,0-0.1,0.4c0,0.2,0.1,0.4,0.2,0.5s0.2,0.1,0.3,0.1c0.2,0,0.3-0.1,0.4-0.2l0,0
		c0.1-0.1,0.4-0.3,0.6-0.5s0.5-0.3,0.6-0.9v-8.6c0-0.6-0.4-1-1-1C24.4,30.5,24.4,30.5,24.3,30.5z"/>
	<path class="st1" d="M16.8,30.6c-0.3-0.2-0.7-0.1-0.9,0.2l-0.4,0.7l0,0L14,34.1c-0.2,0.3-0.1,0.6,0.2,0.8l0,0
		c0.3,0.2,0.7,0.1,0.9-0.2l0.2-0.4v7c-0.1,0.2,0.1,0.5,0.4,0.5c0.2,0.1,0.5-0.1,0.5-0.4c0-0.1,0-0.1,0-0.2v-8.5l0.8-1.3
		C17.2,31.1,17.1,30.8,16.8,30.6L16.8,30.6z"/>
	<path class="st1" d="M25.3,27.6h-1.7v-0.2c0-0.3-0.2-0.6-0.6-0.6l0,0c-0.3,0-0.6,0.3-0.6,0.6v0.2H18v-0.2c0-0.3-0.2-0.6-0.6-0.6
		l0,0c-0.3,0-0.6,0.3-0.6,0.6v0.2h-2.1c-0.3,0-0.6,0.3-0.6,0.6l0,0c0,0.3,0.2,0.6,0.6,0.6l0,0h2.1v0.1c0,0.3,0.2,0.6,0.6,0.6l0,0
		c0.3,0,0.6-0.3,0.6-0.6l0,0v-0.1h4.4v0.1c0,0.3,0.2,0.6,0.6,0.6l0,0c0.3,0,0.6-0.3,0.6-0.6l0,0v-0.1h1.7c0.3,0,0.6-0.3,0.6-0.6l0,0
		C25.9,27.9,25.7,27.6,25.3,27.6L25.3,27.6z"/>
	<path class="st1" d="M22.9,35.4c-0.1-0.1-0.2-0.2-0.3-0.3l-2.1-1.4c-0.2-0.1-0.4-0.2-0.6-0.2c-0.9,0-1.6,0.7-1.6,1.6l0,0v2.6
		c0,0.9,0.7,1.6,1.6,1.6c0.2,0,0.5-0.1,0.7-0.2l1.7-1.3c0.3-0.1,0.6-0.4,0.7-0.7C23.3,36.5,23.2,35.9,22.9,35.4z M21.8,36.7
		l-1.9,1.4c-0.2,0-0.4-0.2-0.5-0.4v-2.6c0-0.2,0.2-0.4,0.4-0.4l0,0l2.1,1.4C22.1,36.3,22.1,36.5,21.8,36.7z"/>
	<path class="st1" d="M1.4,35.8c-0.3,0-0.6,0.3-0.6,0.6l0,0v4.7c0,0.3,0.2,0.6,0.6,0.6c0.3,0,0.6-0.2,0.6-0.6c0,0,0,0,0-0.1v-4.7
		C2,36.1,1.7,35.8,1.4,35.8L1.4,35.8z"/>
	<path class="st1" d="M1.1,30.2c-0.3,0.2-0.4,0.6-0.2,0.9l0.6,1.2l-0.7,1.4c-0.2,0.3-0.1,0.8,0.2,1c0.2,0.2,0.5,0.1,0.7-0.1l0.1-0.1
		l1-2.1l-0.9-2C1.7,30.2,1.4,30.1,1.1,30.2L1.1,30.2z"/>
	<path class="st1" d="M11.3,27.6H9.6v-0.2c0-0.3-0.2-0.6-0.5-0.6S8.5,27,8.5,27.3c0,0.1,0,0.1,0,0.2v0.2H3.8v-0.2
		c0-0.3-0.3-0.6-0.6-0.6s-0.6,0.3-0.6,0.6l0,0v0.2h-2C0.3,27.7,0,28,0,28.3c0,0.3,0.3,0.6,0.6,0.6h2.1V29c0,0.3,0.2,0.6,0.5,0.6l0,0
		c0.3,0,0.6-0.3,0.6-0.6l0,0v-0.1h4.7V29c0,0.3,0.2,0.6,0.6,0.6l0,0c0.3,0,0.6-0.3,0.6-0.6l0,0v-0.1h1.7c0.3,0,0.6-0.3,0.6-0.6l0,0
		C11.9,27.9,11.6,27.7,11.3,27.6L11.3,27.6z"/>
	<path class="st1" d="M8,40.5c-0.3-0.2-0.6-0.2-0.9,0C7,40.6,6.9,40.8,7,41l0.1,0.1l0.7,0.5c0.3,0.2,0.6,0.2,0.9,0
		c0.2-0.1,0.2-0.3,0.1-0.5C8.8,41,8.7,41,8.7,41L8,40.5z"/>
	<path class="st1" d="M38.6,40.6h-0.5c0.1-0.3,0.2-0.6,0.2-0.9l0,0c0,0,0,0,0-0.1V31c0-0.7-0.5-1.2-1.2-1.2h-3v-0.1v-0.8h4
		c0.3,0,0.6-0.3,0.5-0.7c0-0.3-0.2-0.5-0.5-0.5h-4v-0.3c0-0.3-0.2-0.6-0.6-0.6l0,0c-0.3,0-0.6,0.3-0.6,0.6v0.3h-4.2
		c-0.3,0-0.6,0.3-0.6,0.6c0,0.3,0.3,0.6,0.6,0.6H33v0.8v0.1h-3c-0.6,0.1-1.1,0.6-1.1,1.2v9.4c0,0.1,0,0.1,0,0.2h-0.7
		c-0.3,0-0.6,0.3-0.5,0.6c0,0.3,0.2,0.6,0.5,0.6l0,0h6.3c0.3,0,0.6-0.3,0.5-0.6l0,0c0-0.3-0.2-0.6-0.5-0.6H30c0-0.1,0-0.1,0-0.2V31
		l0,0h6.8v8.5l0,0v0.1c-0.1,0.4-0.3,0.8-0.6,1.1l0,0C36,40.9,36,41,35.9,41.2c0,0.3,0.3,0.6,0.6,0.6h2.1c0.3,0,0.6-0.3,0.6-0.6
		C39.2,40.9,38.9,40.6,38.6,40.6z"/>
	<path class="st1" d="M45.2,28.9h6.9c0.3,0,0.6-0.3,0.6-0.6l0,0c0-0.3-0.2-0.6-0.6-0.6l0,0h-6.9c-0.3,0-0.6,0.3-0.6,0.6l0,0
		C44.6,28.6,44.9,28.9,45.2,28.9L45.2,28.9z"/>
	<path class="st1" d="M44.8,32.2h0.8l-0.8,1.2c-0.2,0.3-0.1,0.6,0.2,0.8s0.6,0.1,0.8-0.1l0,0l1.2-1.8h1v1.5c0,0.3,0.3,0.6,0.6,0.6
		s0.6-0.3,0.6-0.6l0,0v-1.5H50v0.1l1,1.6c0.2,0.3,0.5,0.4,0.8,0.2l0,0c0.3-0.2,0.4-0.5,0.2-0.8l-0.7-1.1h1c0.3,0,0.6-0.3,0.6-0.6
		l0,0c0-0.3-0.2-0.6-0.6-0.6l0,0h-0.9l0.4-0.7c0.2-0.3,0.1-0.6-0.1-0.8c-0.2-0.2-0.6-0.1-0.8,0.1l0,0L50,31l0,0h-0.8v-1.2
		c0-0.3-0.2-0.6-0.6-0.6l0,0c-0.3,0-0.6,0.3-0.6,0.6V31h-0.9l-1-1.4c-0.2-0.3-0.5-0.3-0.8-0.1l0,0C45,29.6,45,30,45.2,30.3l0.5,0.8
		h-0.8c-0.3,0-0.6,0.3-0.5,0.7C44.4,31.9,44.6,32.1,44.8,32.2L44.8,32.2z"/>
	<path class="st1" d="M43.6,30.9L43.6,30.9l-0.1-3.5c0-0.3-0.3-0.6-0.6-0.6s-0.6,0.3-0.6,0.6l0,0v3.5h-0.7c-0.3,0-0.6,0.3-0.5,0.7
		c0,0.3,0.2,0.5,0.5,0.5h0.7l0,0c-0.1,0.1-0.1,0.2-0.1,0.3l0,0v1.9l-1.1,1.1c-0.2,0.2-0.2,0.6,0,0.8s0.6,0.2,0.8,0l0,0l0.3-0.3v4.4
		L42,40.4l0,0l-0.5,0.2c-0.3,0.1-0.4,0.5-0.3,0.8c0.1,0.3,0.4,0.4,0.7,0.3l0,0l0.6-0.2L42.4,41l0.2,0.5c0.3-0.1,0.5-0.3,0.7-0.5
		c0.1-0.1,0.2-0.3,0.2-0.4v-8.2c0-0.1,0-0.2,0-0.3V32h0.2c0.3,0,0.6-0.3,0.5-0.7C44.1,31.2,43.9,30.9,43.6,30.9z"/>
	<path class="st1" d="M50.9,34.7h-4.7c-1,0-1.8,0.8-1.8,1.8l0,0V40c0,0.9,0.6,1.6,1.4,1.8c0.3,0,1.3,0,2.5,0h2.4
		c1.1-0.2,2-1.1,2-2.3v-3C52.7,35.5,51.9,34.7,50.9,34.7L50.9,34.7z M51.5,39.5c0,0.3-0.2,0.5-0.3,0.7s-0.3,0.3-0.5,0.4h-1.6v-1.8
		l1.3-0.3c0.3-0.1,0.5-0.4,0.4-0.7s-0.4-0.5-0.7-0.4L49,37.7V37c0-0.3-0.2-0.6-0.6-0.6l0,0c-0.3,0-0.6,0.3-0.5,0.6v0.7l-1.1-0.3
		c-0.3-0.1-0.6,0.1-0.7,0.4l0,0c-0.1,0.3,0.1,0.6,0.4,0.7l0,0l1.3,0.3v1.7H46c-0.3-0.1-0.5-0.3-0.5-0.6v-3.5c0-0.3,0.3-0.6,0.6-0.6
		l0,0h4.7c0.3,0,0.6,0.3,0.6,0.6L51.5,39.5L51.5,39.5z"/>
	<path class="st1" d="M33.6,32.4c-0.2-0.2-0.6-0.3-0.8-0.1l0,0c-0.2,0.2-0.3,0.6,0,0.8l0.8,1l-1,1.2c-0.2,0.3-0.2,0.6,0.1,0.8
		l0.1,0.1l0.8,0.9l-1,1.2c-0.2,0.3-0.2,0.6,0.1,0.8c0.2,0.2,0.6,0.2,0.8-0.1l0,0l1.6-2l-1.3-1.5l1.3-1.6L33.6,32.4z"/>
	<path class="st1" d="M11.3,31.6c0.3,0,0.5-0.3,0.5-0.6c0-0.3-0.2-0.5-0.5-0.6H8.1v-0.2l0,0v-0.1c0-0.4-0.3-0.7-0.7-0.7l0,0
		c-0.4,0-0.7,0.3-0.7,0.7l0,0v0.1l0,0v0.2H4c-0.3,0-0.5,0.3-0.5,0.6c0,0.3,0.2,0.5,0.5,0.6h2.8v1.1h-2c-0.6,0-1.2,0.5-1.2,1.1l0,0
		v3.5c0,0.3,0.2,0.5,0.5,0.5h0.1c0.3,0,0.6-0.2,0.6-0.5l0,0v-3.5l0,0h2V35L6,34.8c-0.3-0.1-0.7,0.1-0.7,0.5C5.2,35.6,5.4,36,5.8,36
		l1,0.3V37c0,0.4,0.3,0.7,0.7,0.7c0.4,0,0.7-0.3,0.7-0.7l0,0v-0.8l1-0.2c0.3-0.1,0.5-0.4,0.4-0.7s-0.4-0.5-0.7-0.5L8.1,35v-1.2h2.4
		l0,0v4.6H3.7c-0.3,0-0.5,0.3-0.5,0.7c0,0.3,0.2,0.5,0.5,0.5h6.9V40c-0.2,0.3-0.4,0.6-0.7,0.8c-0.2,0.2-0.3,0.5-0.1,0.7l0,0
		c0.2,0.2,0.6,0.3,0.8,0.1c0.5-0.4,0.8-0.8,1.1-1.4c0-0.1,0-0.2,0-0.2v-6.2c0-0.6-0.5-1.2-1.2-1.1l0,0H8.1v-1.1
		C8.1,31.6,11.3,31.6,11.3,31.6z"/>
</g>
<g>
	<path class="st1" d="M1,126.2l-0.8-1c2-1.6,3.5-3.4,4.3-5.6l1.2,0.4C4.7,122.5,3.1,124.5,1,126.2z M10,130.6
		c-1.5,0.1-6.5,0.3-8.2,0.5l-0.4-1.3c0.6-0.1,0.7-0.2,0.9-0.5c1-1.2,2.4-3.5,3.4-5.5l1.3,0.5c-0.9,1.9-2.3,4.2-3.3,5.4l5.5-0.3
		c-0.6-0.9-1.2-1.9-1.7-2.5l1.1-0.7c0.9,1.3,2.3,3.4,3.2,4.8l-1.1,0.7L10,130.6z M7.4,119.8l1.2-0.4c1,2.7,2.2,4.3,4.4,5.7l-0.8,1.1
		C9.9,124.6,8.6,122.9,7.4,119.8z"/>
	<path class="st1" d="M22.7,126h-3.8c-0.2,2.7-0.9,3.9-3.1,5.8l-1-1c2.1-1.7,2.7-2.7,2.8-4.8h-3.1v-1.3h3.2v-0.2v-3.4H15v-1.3h11.5
		v1.3h-2.4v3.6h3v1.3h-3v5.5h-1.3V126H22.7z M18.9,124.8h3.7v-3.6h-3.7v3.3V124.8z"/>
	<path class="st1" d="M30.3,131.2l-0.8-1c0.3-0.3,0.4-0.5,0.4-0.9v-4.6h-1.5v-1.3h2.7v5.3l1.2-1l0.6,1.1
		C32.5,129.3,31.2,130.4,30.3,131.2z M29.1,120.2l1.1-0.7c0.5,0.6,1.3,1.8,1.8,2.4l-1.1,0.7C30.5,122,29.6,120.8,29.1,120.2z
		 M35.7,128.6c-0.9,1-2,1.9-3.5,2.8l-0.7-1.1c1.8-0.9,2.9-1.7,3.8-2.8h-3.2v-1.1h3.7v-1.1h-3v-5.4h7.5v5.4h-3.1v1.1h3.9v1.1h-3.5
		c0.9,1,2.1,1.8,3.8,2.6l-0.6,1.1c-1.4-0.8-2.7-1.7-3.6-2.7v3.2H36v-3.1H35.7z M33.9,122.1h1.8V121h-1.8V122.1z M33.9,124.2h1.8
		v-1.1h-1.8V124.2z M37,120.9v1.1h1.8v-1.1H37z M38.8,124.2v-1.1H37v1.1H38.8z"/>
</g>
<g>
	<g>
		<path class="st1" d="M10.2,12.5l-1.2-1.3c0,0,0.7-1.9,0.6-4.4h-1c0,2-0.4,3.5-0.4,3.5l-2-2.4c0,0.3,0,1-0.1,1.4l1.8,2.1
			c0,0-0.6,1.6-1.7,2.7l0.6,0.7c1.2-1,1.8-2.6,1.8-2.6l1.6,1.8V12.5z"/>
		<path class="st1" d="M5.1,11.2c0,0,0.6-1.6,0.6-4.4h-1c0,2-0.4,3.5-0.4,3.5L2.1,7.8v1.5l1.8,2.1c0,0-0.6,1.7-1.7,2.7l0.6,0.7
			c1.2-1.1,1.8-2.6,1.8-2.6l1.2,1.4c0.1-0.1,0.4-0.4,0.6-0.8L5.1,11.2z"/>
		<path class="st1" d="M0.3,4.7v13.4h1.2V5.7l9.4,0l0,8.6c0,1.6-0.6,3.1-0.8,3.5l1.1,0.4c0.6-1.2,0.9-2.6,0.9-4.1V4.7H0.3z"/>
	</g>
	<g>
		<path class="st1" d="M34.5,6.3V4.7h-1.2v1.5h-4.6v0.9h4.6v1.5h-5.6v1h7.1c0,0-2.9,2.4-7.1,3.3l0,1.1c2.4-0.4,4.5-1.5,4.5-1.5v1.9
			h5.6c0,0-0.2,2.5-2.8,2.6h-2.9v1H35c4.1,0,4.1-4.6,4.1-4.6l-5.6,0v-1.4l5.6,0l0-1l-4.5,0c0,0,1.1-0.8,1.9-1.5H40v-1h-2.5
			c0,0,1.4-1.4,2.3-3h-1.4c-1.1,1.6-2.6,3-2.6,3h-1.4V7.2H37V6.3H34.5"/>
	</g>
	<g>
		<path class="st1" d="M25.2,4.7L25.2,4.7l-9.8,0v5.2h9.8V4.7z M24,8.9h-7.4V7.8H23v-1h-6.4V5.7H24V8.9z"/>
		<path class="st1" d="M15.9,11l-1.1-0.4c-0.2,0.8-0.5,1.6-0.8,2.4l1,0.5c0.3-0.5,0.6-1.5,0.6-1.5l2.3,0c0,0-0.5,3.3-2.1,5.8
			l1.1,0.5c1.7-2.5,2.3-6.3,2.3-6.3h2.3c0,0-0.2,3.3-1.8,5.8l1.1,0.5c1.7-2.5,2-6.3,2-6.3h1.9l0,2.4c0,1.6-0.6,3-0.8,3.5l1.1,0.4
			c0.6-1.2,0.9-2.6,0.9-4.1V11L15.9,11z"/>
	</g>
	<g>
		<g>
			<path class="st1" d="M49.1,14.4c-0.8-1.2-1.2-2.6-1.2-4.2V7.8h-1.2v2.5c0,2.3,0.9,4,1.5,4.9C48.3,15,48.7,14.7,49.1,14.4z"/>
			<path class="st1" d="M48.6,17.2c0.5-0.3,4.2-2.3,4.3-7.4l0-1.9h-1.2l0,2.2c0,2.2-1.6,6-6,7.1v1h8.2v-1H48.6z"/>
		</g>
		<path class="st1" d="M43.4,4.7l0,1.5h-1.7v0.9h1.7l0,4.9l-1.8,1.1l0.5,0.9c0.5-0.3,1.3-0.7,1.3-0.7v1.3c0,0,0,1.5-0.8,3.2l1.1,0.4
			c0.6-1.2,0.9-2.5,0.9-4.1V4.7H43.4z"/>
		<polygon class="st1" points="50.4,6.3 50.4,4.7 49.2,4.7 49.2,6.3 49.2,6.3 46.6,6.3 45.7,6.3 45.7,7.2 53.9,7.2 53.9,6.3 		"/>
	</g>
</g>
</svg>
